<svg width="87" height="87" viewBox="0 0 87 87" fill="none" xmlns="http://www.w3.org/2000/svg">
<path d="M74.3125 9.0625H12.6875L18.125 70.6875L43.5 77.9375L68.875 70.6875L74.3125 9.0625Z" fill="#E65100"/>
<path d="M43.5 14.5V72.3188L63.8 66.5188L68.3313 14.5H43.5Z" fill="#FF6D00"/>
<path d="M43.5 45.3125V38.0625H59.0875L57.8187 58.9062L43.5 63.6187V56.0062L50.9313 53.4688L51.475 45.3125H43.5ZM59.6313 30.8125L60.175 23.5625H43.5V30.8125H59.6313Z" fill="white"/>
<path d="M43.5001 56.0062V63.6187L29.1813 58.9062L28.4563 48.9375H35.7063L36.0688 53.4688L43.5001 56.0062ZM34.6188 30.8125H43.5001V23.5625H27.0063L28.2751 45.3125H43.5001V38.0625H35.1626L34.6188 30.8125Z" fill="#EEEEEE"/>
</svg>
