<svg width="44" height="67" viewBox="0 0 44 67" fill="none" xmlns="http://www.w3.org/2000/svg">
<path d="M23.625 22.5625H11.125C5.08437 22.5625 0.1875 17.6656 0.1875 11.625C0.1875 5.58437 5.08437 0.6875 11.125 0.6875H23.625V22.5625Z" fill="#E64A19"/>
<path d="M22.0625 44.4375H11.125C5.08437 44.4375 0.1875 39.5406 0.1875 33.5C0.1875 27.4594 5.08437 22.5625 11.125 22.5625H22.0625V44.4375Z" fill="#7C4DFF"/>
<path d="M11.125 66.3125C5.08437 66.3125 0.1875 61.4156 0.1875 55.375C0.1875 49.3344 5.08437 44.4375 11.125 44.4375H22.0625V55.375C22.0625 61.4156 17.1656 66.3125 11.125 66.3125Z" fill="#66BB6A"/>
<path d="M33 22.5625H22.0625V0.6875H33C39.0406 0.6875 43.9375 5.58437 43.9375 11.625C43.9375 17.6656 39.0406 22.5625 33 22.5625Z" fill="#FF7043"/>
<path d="M33 44.4375C39.0406 44.4375 43.9375 39.5406 43.9375 33.5C43.9375 27.4594 39.0406 22.5625 33 22.5625C26.9594 22.5625 22.0625 27.4594 22.0625 33.5C22.0625 39.5406 26.9594 44.4375 33 44.4375Z" fill="#29B6F6"/>
</svg>
