<svg width="64" height="64" viewBox="0 0 64 64" fill="none" xmlns="http://www.w3.org/2000/svg">
<path d="M0 64V0H64V64H0Z" fill="#FFD600"/>
<path d="M36.5121 44.3502C37.7423 46.3485 39.0792 48.2631 41.9112 48.2631C44.2899 48.2631 45.5379 47.0809 45.5379 45.4454C45.5379 43.488 44.2472 42.7929 41.6303 41.6534L40.1957 41.0418C36.0552 39.2854 33.3015 37.0845 33.3015 32.4356C33.3015 28.1511 36.5815 24.8907 41.7068 24.8907C45.3566 24.8907 47.9788 26.1547 49.8703 29.4649L45.401 32.3218C44.4179 30.5654 43.3548 29.8738 41.7068 29.8738C40.025 29.8738 38.9601 30.9351 38.9601 32.3218C38.9601 34.0356 40.0268 34.7289 42.489 35.7902L43.9237 36.4018C48.8037 38.48 51.5557 40.6027 51.5557 45.3742C51.5557 50.5156 47.4952 53.3334 42.0446 53.3334C36.713 53.3334 33.6855 50.6578 32.0001 47.3458L36.5121 44.3502ZM15.9148 44.496C16.8143 46.1067 18.1815 47.3458 20.1477 47.3458C22.0286 47.3458 23.1112 46.6027 23.1112 43.7138V24.8889H29.0366V44.624C29.0366 50.6098 25.5646 53.3334 20.4943 53.3334C15.913 53.3334 12.6063 50.2294 11.2588 47.3458L15.9148 44.496Z" fill="#000001"/>
</svg>
