<svg width="84" height="84" viewBox="0 0 84 84" fill="none" xmlns="http://www.w3.org/2000/svg">
<path d="M77 9H15L20.4706 71L46 78.2941L71.5294 71L77 9Z" fill="#0277BD"/>
<path d="M46 14.4707V72.6413L66.4235 66.806L70.9824 14.4707H46Z" fill="#039BE5"/>
<path d="M62.5941 23.5881H46V30.8823H54.9353L54.3882 38.1764H46V45.4705H54.0235L53.4765 53.6764L46 56.2293V63.8881L60.4059 59.147L61.6824 38.1764L62.5941 23.5881Z" fill="white"/>
<path d="M45.9999 23.5881V30.8823H29.7704L29.2234 23.5881H45.9999ZM37.6116 38.1764L37.9763 45.4705H45.9999V38.1764H37.6116ZM38.341 49.1175H31.0469L31.594 59.147L45.9999 63.8881V56.2293L38.5234 53.6764L38.341 49.1175Z" fill="#EEEEEE"/>
</svg>
